<svg width="136" height="48" viewBox="0 0 136 48" fill="none" xmlns="http://www.w3.org/2000/svg">
<path fill-rule="evenodd" clip-rule="evenodd" d="M64.9677 17.8977H55.4543L53.7872 21.776C53.3765 22.7305 53.1711 23.4433 53.1711 23.9145C53.1711 24.289 53.3463 24.6213 53.6966 24.9112C54.059 25.1891 54.8322 25.3703 56.0161 25.4549V26.1254H48.2785V25.4549C49.3054 25.2737 49.9698 25.0381 50.2718 24.7481C50.8879 24.1682 51.5704 22.9902 52.3194 21.2142L60.963 0.989258H61.5972L70.1502 21.4317C70.8388 23.0748 71.4609 24.144 72.0166 24.6394C72.5844 25.1227 73.3696 25.3945 74.3723 25.4549V26.1254H64.6777V25.4549C65.6563 25.4066 66.3147 25.2435 66.6529 24.9656C67.0032 24.6877 67.1784 24.3494 67.1784 23.9507C67.1784 23.4191 66.9368 22.5794 66.4536 21.4317L64.9677 17.8977ZM64.4603 16.5567L60.2925 6.62542L56.0161 16.5567H64.4603ZM92.5111 2.2216V1.55106H101.209V2.2216H100.285C99.3185 2.2216 98.5755 2.62634 98.0561 3.43582C97.8024 3.81036 97.6756 4.68025 97.6756 6.04549V16.013C97.6756 18.4777 97.4279 20.3926 96.9326 21.7579C96.4494 23.111 95.489 24.2769 94.0514 25.2556C92.6259 26.2221 90.681 26.7054 88.2165 26.7054C85.5347 26.7054 83.4991 26.2402 82.1099 25.3099C80.7206 24.3796 79.7361 23.1292 79.1562 21.5585C78.7696 20.4832 78.5763 18.4656 78.5763 15.5055V5.90051C78.5763 4.39028 78.3649 3.39958 77.9421 2.92839C77.5314 2.4572 76.8609 2.2216 75.9307 2.2216H75.0065V1.55106H85.6253V2.2216H84.683C83.6683 2.2216 82.9434 2.54177 82.5085 3.18211C82.2065 3.61705 82.0555 4.52318 82.0555 5.90051V16.611C82.0555 17.5655 82.1401 18.6589 82.3092 19.8912C82.4904 21.1236 82.8105 22.0841 83.2696 22.7727C83.7286 23.4614 84.387 24.0293 85.2448 24.4763C86.1145 24.9233 87.1776 25.1468 88.434 25.1468C90.0407 25.1468 91.4783 24.7964 92.7467 24.0957C94.0152 23.395 94.8789 22.5009 95.338 21.4135C95.8091 20.3141 96.0447 18.4595 96.0447 15.8499V5.90051C96.0447 4.36612 95.8755 3.40562 95.5373 3.019C95.0662 2.4874 94.3655 2.2216 93.4353 2.2216H92.5111ZM116.92 26.1254L118.641 21.3954H117.971C117.657 21.9391 117.288 22.362 116.865 22.664C116.443 22.954 115.965 23.1473 115.434 23.2439C114.914 23.3406 114.002 23.3889 112.698 23.3889H106.283C107.032 22.7123 108.91 20.7309 111.918 17.4447C113.924 15.2579 115.373 13.1858 116.267 11.2286C116.847 9.98416 117.137 8.73973 117.137 7.49531C117.137 5.75553 116.467 4.2453 115.126 2.96463C113.797 1.68396 112.136 1.04363 110.143 1.04363C108.27 1.04363 106.706 1.64168 105.449 2.83777C104.205 4.03387 103.432 5.74949 103.13 7.98462H103.8C104.259 6.61938 104.966 5.58638 105.92 4.88564C106.887 4.17281 107.974 3.8164 109.182 3.8164C110.511 3.8164 111.653 4.31779 112.607 5.32058C113.561 6.32337 114.039 7.60404 114.039 9.1626C114.039 11.2044 113.169 13.4577 111.429 15.9224C109.69 18.3871 106.688 21.5646 102.423 25.4549V26.1254H116.92ZM124.53 3.96138L130.51 1.04363H131.108V21.7941C131.108 23.1714 131.163 24.0293 131.271 24.3675C131.392 24.7058 131.634 24.9656 131.996 25.1468C132.359 25.328 133.095 25.4307 134.207 25.4549V26.1254H124.965V25.4549C126.125 25.4307 126.874 25.3341 127.212 25.1649C127.551 24.9837 127.786 24.7481 127.919 24.4582C128.052 24.1561 128.118 23.2681 128.118 21.7941V8.5283C128.118 6.74019 128.058 5.59242 127.937 5.08499C127.853 4.69837 127.696 4.41445 127.466 4.23322C127.249 4.05199 126.983 3.96138 126.669 3.96138C126.222 3.96138 125.6 4.14865 124.802 4.52319L124.53 3.96138ZM60.6678 37.0908L60.3455 32.2965H59.9815C59.9053 32.6293 59.777 32.8893 59.5968 33.0765C59.4581 33.2082 59.2952 33.2741 59.108 33.2741C58.9832 33.2741 58.7753 33.1978 58.4841 33.0453C57.4928 32.5461 56.4876 32.2965 55.4685 32.2965C54.1583 32.2965 52.9486 32.6224 51.8394 33.2741C50.7371 33.9189 49.8706 34.8306 49.2397 36.0092C48.6089 37.1879 48.2934 38.4809 48.2934 39.8884C48.2934 41.6355 48.7718 43.1539 49.7285 44.4435C51.011 46.1768 52.8203 47.0434 55.1565 47.0434C56.4529 47.0434 57.5725 46.7522 58.5153 46.1698C59.4581 45.5874 60.2831 44.6688 60.9902 43.4139L60.6678 43.2059C59.829 44.3707 59.0595 45.1506 58.3593 45.5458C57.6592 45.9341 56.8515 46.1282 55.9364 46.1282C54.8827 46.1282 53.9434 45.8786 53.1184 45.3794C52.3004 44.8802 51.6869 44.1627 51.2779 43.2267C50.8688 42.2907 50.6643 41.1849 50.6643 39.9091C50.6643 38.363 50.8792 37.07 51.3091 36.03C51.7458 34.9901 52.342 34.2343 53.0976 33.7629C53.8532 33.2845 54.699 33.0453 55.6349 33.0453C56.751 33.0453 57.7077 33.3608 58.5049 33.9917C59.3021 34.6226 59.9157 35.6556 60.3455 37.0908H60.6678ZM66.0127 41.9995H71.472L72.3247 44.0275C72.602 44.6861 72.7406 45.168 72.7406 45.473C72.7406 45.7018 72.6401 45.896 72.4391 46.0554C72.245 46.2149 71.8672 46.3085 71.3056 46.3362V46.721H76.8689V46.3362C76.2935 46.3016 75.8429 46.1456 75.5171 45.8682C75.1982 45.584 74.8412 44.9704 74.446 44.0275L69.5379 32.2965H69.1739L64.2138 43.9027C63.784 44.9218 63.3923 45.5978 63.0387 45.9306C62.8654 46.097 62.4841 46.2322 61.8949 46.3362V46.721H66.3351V46.3362C65.6557 46.2877 65.212 46.1837 65.0041 46.0242C64.803 45.8578 64.7025 45.6672 64.7025 45.4522C64.7025 45.1818 64.8204 44.7728 65.0561 44.2251L66.0127 41.9995ZM68.7892 35.5308L71.1808 41.2299H66.3351L68.7892 35.5308ZM81.4859 40.1171V44.2251C81.4859 45.1125 81.583 45.6637 81.7771 45.8786C82.0405 46.1837 82.4391 46.3362 82.9729 46.3362H83.5136V46.721H77.472V46.3362H78.0024C78.5985 46.3362 79.0249 46.1421 79.2814 45.7538C79.42 45.5389 79.4894 45.0293 79.4894 44.2251V35.1148C79.4894 34.2274 79.3958 33.6762 79.2086 33.4613C78.9382 33.1562 78.5362 33.0037 78.0024 33.0037H77.472V32.6189H82.6402C83.9019 32.6189 84.8967 32.7506 85.6246 33.0141C86.3525 33.2706 86.966 33.7074 87.4651 34.3245C87.9643 34.9415 88.2138 35.673 88.2138 36.5188C88.2138 37.6697 87.8325 38.6057 87.07 39.3268C86.3143 40.0478 85.2433 40.4083 83.8568 40.4083C83.5171 40.4083 83.1497 40.3841 82.7545 40.3355C82.3594 40.287 81.9365 40.2142 81.4859 40.1171ZM81.4859 39.5244C81.8533 39.5937 82.1791 39.6457 82.4634 39.6804C82.7476 39.715 82.9902 39.7324 83.1913 39.7324C83.9123 39.7324 84.5327 39.455 85.0526 38.9004C85.5795 38.3388 85.8429 37.6143 85.8429 36.7268C85.8429 36.1167 85.7182 35.5516 85.4686 35.0317C85.219 34.5047 84.8655 34.113 84.4079 33.8565C83.9504 33.593 83.4304 33.4613 82.8481 33.4613C82.4946 33.4613 82.0405 33.5271 81.4859 33.6589V39.5244ZM95.5449 46.721V46.3362H95.0353C94.7026 46.3362 94.3871 46.253 94.0891 46.0866C93.8672 45.9618 93.7216 45.8128 93.6523 45.6394C93.5622 45.4106 93.5171 44.9392 93.5171 44.2251V35.1148C93.5171 34.269 93.6038 33.7351 93.7771 33.5133C94.0405 33.1736 94.4599 33.0037 95.0353 33.0037H95.5449V32.6189H89.5033V33.0037H90.0024C90.3351 33.0037 90.654 33.0869 90.9591 33.2533C91.174 33.3781 91.3161 33.5271 91.3854 33.7005C91.4755 33.9293 91.5206 34.4007 91.5206 35.1148V44.2251C91.5206 45.0709 91.4374 45.6048 91.271 45.8266C91.0076 46.1664 90.5847 46.3362 90.0024 46.3362H89.5033V46.721H95.5449ZM108.387 32.6189L108.543 35.926H108.148C108.072 35.3436 107.968 34.9277 107.836 34.6781C107.621 34.2759 107.333 33.9813 106.973 33.7941C106.619 33.5999 106.151 33.5029 105.569 33.5029H103.583V44.2771C103.583 45.1437 103.677 45.6845 103.864 45.8994C104.127 46.1906 104.533 46.3362 105.08 46.3362H105.569V46.721H99.5899V46.3362H100.089C100.685 46.3362 101.108 46.156 101.358 45.7954C101.51 45.5736 101.586 45.0674 101.586 44.2771V33.5029H99.8915C99.2329 33.5029 98.765 33.5514 98.4877 33.6485C98.1272 33.7802 97.8187 34.0333 97.5622 34.4077C97.3057 34.7821 97.1532 35.2882 97.1047 35.926H96.7095L96.8759 32.6189H108.387ZM111.663 41.9995H117.122L117.975 44.0275C118.252 44.6861 118.391 45.168 118.391 45.473C118.391 45.7018 118.29 45.896 118.089 46.0554C117.895 46.2149 117.517 46.3085 116.956 46.3362V46.721H122.519V46.3362C121.944 46.3016 121.493 46.1456 121.167 45.8682C120.848 45.584 120.491 44.9704 120.096 44.0275L115.188 32.2965H114.824L109.864 43.9027C109.434 44.9218 109.042 45.5978 108.689 45.9306C108.515 46.097 108.134 46.2322 107.545 46.3362V46.721H111.985V46.3362C111.306 46.2877 110.862 46.1837 110.654 46.0242C110.453 45.8578 110.353 45.6672 110.353 45.4522C110.353 45.1818 110.47 44.7728 110.706 44.2251L111.663 41.9995ZM114.439 35.5308L116.831 41.2299H111.985L114.439 35.5308ZM134.977 42.8211L135.32 42.8939L134.113 46.721H123.195V46.3362H123.725C124.321 46.3362 124.748 46.1421 125.004 45.7538C125.15 45.532 125.223 45.0189 125.223 44.2147V35.1148C125.223 34.2343 125.126 33.6831 124.931 33.4613C124.661 33.1562 124.259 33.0037 123.725 33.0037H123.195V32.6189H129.58V33.0037C128.831 32.9968 128.304 33.0661 127.999 33.2117C127.701 33.3573 127.496 33.541 127.385 33.7629C127.275 33.9847 127.219 34.5151 127.219 35.354V44.2147C127.219 44.7901 127.275 45.1853 127.385 45.4002C127.469 45.5458 127.597 45.6533 127.77 45.7226C127.944 45.792 128.484 45.8266 129.392 45.8266H130.422C131.503 45.8266 132.262 45.7469 132.699 45.5874C133.136 45.428 133.535 45.1472 133.895 44.7451C134.256 44.336 134.616 43.6947 134.977 42.8211ZM20.2483 1.58937C20.6066 1.58914 20.9502 1.73161 21.2032 1.98529L39.5103 20.3409C40.0358 20.8678 40.0347 21.7211 39.5079 22.2467C38.981 22.7723 38.1278 22.7712 37.6022 22.2443L20.2504 4.84647L2.99021 22.1966C2.46533 22.7242 1.61215 22.7264 1.08459 22.2015C0.557035 21.6765 0.554864 20.8233 1.07975 20.2956L19.2939 1.98651C19.5466 1.73251 19.89 1.5896 20.2483 1.58937ZM20.2483 10.0934C20.6066 10.0931 20.9502 10.2356 21.2032 10.4893L39.5103 28.8449C40.0358 29.3718 40.0347 30.2251 39.5079 30.7507C38.981 31.2763 38.1278 31.2752 37.6022 30.7483L20.2504 13.3505L2.99021 30.7006C2.46533 31.2282 1.61215 31.2304 1.08459 30.7054C0.557035 30.1805 0.554864 29.3272 1.07975 28.7996L19.2939 10.4905C19.5466 10.2365 19.89 10.0936 20.2483 10.0934ZM21.2032 18.9933C20.9502 18.7396 20.6066 18.5971 20.2483 18.5973C19.89 18.5976 19.5466 18.7405 19.2939 18.9945L1.07975 37.3036C0.554864 37.8312 0.557035 38.6845 1.08459 39.2094C1.61215 39.7344 2.46533 39.7322 2.99021 39.2046L20.2504 21.8544L37.6022 39.2523C38.1278 39.7792 38.981 39.7803 39.5079 39.2547C40.0347 38.7291 40.0358 37.8758 39.5103 37.3489L21.2032 18.9933ZM19.5841 28.7423L2.54609 45.7822H37.6734L20.6354 28.7423C20.3451 28.452 19.8744 28.452 19.5841 28.7423Z" fill="#626263"/>
</svg>
