<svg width="101" height="48" viewBox="0 0 101 48" fill="none" xmlns="http://www.w3.org/2000/svg">
<path fill-rule="evenodd" clip-rule="evenodd" d="M0 29.8499V0.989258L18.6673 22.1128V0.989258H21.8604V14.4985H40.282L23.0885 47.0434L19.8954 44.9556L34.5099 17.4459H21.8604V29.8499L2.94747 8.84917V29.8499H0ZM49.7157 30.8322V9.38191H46.753V30.8322H49.7157ZM60.077 17.5989C62.7734 17.5989 65.7039 18.0598 66.5544 23.1293C66.324 28.4292 59.9131 31.3186 56.5218 27.0795C55.644 25.9822 55.2051 24.6655 55.2051 23.1293C55.2051 21.615 55.644 20.3202 56.5218 19.2449C57.4216 18.1476 58.6067 17.5989 60.077 17.5989ZM68.8612 30.8322V15.4263H66.3898V17.994H66.324C64.9853 15.975 61.7339 14.9655 59.5174 14.9655C57.3448 14.9655 55.5891 15.7665 54.2504 17.3685C52.9117 18.9486 52.2424 20.8359 52.2424 23.0305C52.2424 25.3568 52.9008 27.3319 54.2175 28.9559C55.5562 30.5579 57.3558 31.3589 59.6162 31.3589C61.7888 31.3589 65.0072 30.3823 66.324 28.4292H66.3898V30.8322H68.8612ZM81.1238 28.7254C82.6819 28.7254 83.8999 28.1878 84.7777 27.1124C85.6775 26.0371 86.1274 24.7094 86.1274 23.1293C86.1274 21.5711 85.6775 20.2654 84.7777 19.212C83.8779 18.1366 82.66 17.5989 81.1238 17.5989C79.6534 17.5989 76.9946 18.1476 76.0948 19.2449C75.217 20.3202 74.7781 21.615 74.7781 23.1293C74.7781 24.6655 75.217 25.9822 76.0948 27.0795C76.9726 28.1768 79.6314 28.7254 81.1238 28.7254ZM71.98 30.8322V9.38191H74.9427V17.994H75.0085C76.3472 15.975 79.6095 14.9655 81.848 14.9655C83.9986 14.9655 85.7433 15.7665 87.082 17.3685C88.4207 18.9486 89.0901 20.8359 89.0901 23.0305C89.0901 25.3568 88.4317 27.3319 87.1149 28.9559C85.7982 30.5579 83.9986 31.3589 81.7163 31.3589C80.6629 31.3589 78.2016 31.0956 77.2799 30.5689C76.3801 30.0422 75.623 29.3289 75.0085 28.4292H74.9427V30.8322H71.98ZM96.6908 18.9486L99.0939 17.6648C98.216 15.8652 96.8115 14.9655 94.8803 14.9655C93.6294 14.9655 92.554 15.4044 91.6543 16.2822C90.7764 17.1381 90.3375 18.1915 90.3375 19.4424C90.3375 20.408 90.5789 21.1651 91.0617 21.7138C91.5445 22.2405 92.2907 22.7781 93.3002 23.3268L96.197 24.874C96.9212 25.3568 97.2833 25.9164 97.2833 26.5528C97.2833 27.1892 97.0529 27.7159 96.592 28.1329C96.1312 28.5279 95.5826 28.7254 94.9461 28.7254C93.8049 28.7254 92.8722 28.0671 92.148 26.7503L89.6133 27.9025C90.0083 28.9559 90.6996 29.8008 91.6872 30.4372C92.6967 31.0517 93.783 31.3589 94.9461 31.3589C96.3945 31.3589 97.6345 30.8761 98.6659 29.9105C99.7193 28.9229 100.246 27.705 100.246 26.2565C100.246 25.1593 99.9278 24.2814 99.2914 23.6231C98.655 22.9647 97.7881 22.3831 96.6908 21.8784C96.5591 21.8125 96.3068 21.7028 95.9337 21.5492C95.5825 21.3956 95.3302 21.2858 95.1766 21.22C95.0229 21.1322 94.8035 21.0225 94.5182 20.8908C94.2548 20.7372 94.0573 20.6055 93.9256 20.4958C93.8159 20.3861 93.6733 20.2654 93.4977 20.1337C93.3441 19.9801 93.2344 19.8264 93.1685 19.6728C93.1246 19.4972 93.1027 19.3107 93.1027 19.1132C93.1027 18.6962 93.2673 18.3451 93.5965 18.0598C93.9256 17.7526 94.2987 17.5989 94.7157 17.5989C95.5935 17.5989 96.2519 18.0488 96.6908 18.9486Z" fill="#626263"/>
</svg>
