<svg width="98" height="56" viewBox="0 0 98 56" fill="none" xmlns="http://www.w3.org/2000/svg">
<path fill-rule="evenodd" clip-rule="evenodd" d="M64.5462 31.6571H37.0957C36.9277 31.6571 36.898 31.645 36.7907 31.5575C36.2246 31.0952 37.4173 30.2228 38.1242 29.5158L46.0184 21.8301C46.7149 21.2478 47.4804 20.4333 48.1399 19.7698C48.4369 19.4711 48.686 19.2931 48.983 18.9944L53.9739 14.1382C54.6471 13.465 55.9484 12.2298 56.4246 11.5978C57.2746 10.4701 58.0798 8.62687 58.3803 6.94377C58.6294 5.54766 58.5568 4.50986 58.6474 3.90614C58.8147 2.79267 58.9776 2.38915 59.7575 1.71127C61.0463 2.39319 61.4739 2.9867 61.9165 4.67809C62.2758 6.05124 62.6235 7.43197 62.9683 8.81958L67.7025 27.4217C67.9083 28.2449 68.0085 28.5708 67.6215 29.5393C67.1995 30.5955 65.9824 31.6571 64.5461 31.6571H64.5462ZM30.0139 29.6337C29.4472 28.5627 29.6873 27.7593 29.9904 26.7101C30.1312 26.2233 30.2398 25.8382 30.3803 25.3464C32.303 18.617 34.1117 11.8476 36.0601 5.12704C36.4105 3.91858 36.7339 2.53846 37.9935 1.86706C38.8011 1.43662 39.9893 1.57633 41.1425 1.57633C46.9204 1.57633 52.6982 1.57633 58.4761 1.57633C58.0411 2.22597 56.739 3.28208 56.2659 3.75015C56.1039 3.91049 55.991 4.02774 55.8289 4.18989L53.1986 6.82025C52.5909 7.42792 52.0545 8.04601 51.3844 8.58064C50.7998 9.04709 47.4921 12.5338 46.5223 13.4308C44.9454 14.8893 42.4069 17.6198 41.1625 18.66L33.6056 26.1434C33.3908 26.3582 30.3419 29.4142 30.0141 29.6337H30.0139ZM29.5418 32.8037H67.9184C70.8988 32.8037 73.3816 30.2917 73.3816 27.6104C73.3816 27.2323 73.2686 26.9254 73.1933 26.6521C73.0965 26.3002 73.0347 26.0488 72.9328 25.6985L71.382 20.0327C71.0153 18.7754 70.6732 17.5267 70.3461 16.2799C70.0158 15.0212 69.6685 13.7943 69.3209 12.5165C68.6907 10.1996 67.5106 5.33523 66.5029 3.3965C65.7066 1.86433 64.1608 0.362305 62.3204 0.362305H35.7467C34.4965 0.362305 33.4073 1.04665 32.6264 1.82821C32.3697 2.08506 32.1513 2.38146 31.9426 2.69566C30.8068 4.40587 29.8629 8.4376 29.1292 10.7409L24.4402 26.2183C24.1398 27.2383 23.9282 27.6103 24.2716 28.7663C24.9347 30.9987 26.8836 32.8036 29.5417 32.8036L29.5418 32.8037Z" fill="#626263"/>
<path fill-rule="evenodd" clip-rule="evenodd" d="M74.665 44.2687V55.2624H76.8908V44.2687C76.8908 43.8103 76.9829 43.3597 77.2088 43.1029C77.5392 42.7274 77.8139 42.5826 78.3746 42.5826C79.0971 42.5826 79.732 43.4342 80.3811 44.0833L83.9558 47.6579C84.8511 48.5532 85.1027 49.1248 86.4007 49.1248C87.2828 49.1248 87.9877 48.1785 88.4747 47.6916C89.0869 47.0793 89.6498 46.5165 90.262 45.9043C90.8742 45.292 91.437 44.7292 92.0493 44.1169C92.8447 43.3214 93.3362 42.5825 94.2244 42.5825C94.9516 42.5825 95.5734 43.2042 95.5734 43.9313V55.2623H97.7991V44.0663C97.7991 43.5623 97.4452 42.9986 97.178 42.7315C96.8701 42.4236 96.372 42.1104 95.7757 42.1104H91.594C90.7773 42.1104 90.2143 42.7818 89.7899 43.2063C88.5953 44.4009 87.7365 45.0227 87.4485 46.8002C87.3085 47.6644 87.6451 48.6526 86.0635 48.6526C85.0231 48.6526 85.0925 47.343 85.0476 46.7684C84.9203 45.1383 83.6319 44.1638 82.6744 43.2063C82.1851 42.717 81.7492 42.1104 80.8027 42.1104H76.6211C75.7392 42.1104 74.6651 43.1268 74.6651 44.2686L74.665 44.2687Z" fill="#626263"/>
<path fill-rule="evenodd" clip-rule="evenodd" d="M55.9785 42.5826H68.6583C68.4041 42.9621 67.4776 43.7971 67.0902 44.1844L61.561 49.7163C61.3855 49.89 61.2932 49.9254 61.1205 50.0851L59.1317 52.0756C58.8312 52.3761 56.0653 55.0052 55.9786 55.3298C56.3843 55.3298 58.8792 55.4542 59.1706 55.2169C59.46 54.9812 59.7078 54.621 60.0154 54.3756C60.8572 53.704 61.97 52.3715 62.9732 51.533L67.6314 46.9511C68.9158 45.6607 68.6208 43.713 68.9261 43.1873C69.4313 42.3176 71.3563 42.1938 71.3563 44.1338V55.3297H73.5146V43.9989C73.5146 43.0834 72.5415 42.1104 71.626 42.1104H55.9786V42.5825L55.9785 42.5826Z" fill="#626263"/>
<path fill-rule="evenodd" clip-rule="evenodd" d="M2.22572 53.104V44.4035C2.22572 43.4731 2.58848 42.5825 3.57459 42.5825H14.0288C14.4853 42.5825 14.8495 42.8365 15.0529 43.1096C15.2948 43.4343 15.3777 43.8554 15.3777 44.4035V53.104C15.3777 54.0097 14.9086 54.7901 14.0289 54.7901H3.57469C2.6949 54.7901 2.22582 54.0097 2.22582 53.104H2.22572ZM0 44.2686V53.104C0 53.4697 0.114816 53.8076 0.244402 54.0736C0.710345 55.0309 1.67319 55.3297 2.83278 55.3297H14.7707C15.7027 55.3297 16.1946 55.2313 16.7479 54.8116C17.2007 54.468 17.6033 53.8646 17.6033 53.104V44.2686C17.6033 43.1158 16.5249 42.1104 15.6474 42.1104H1.95593C1.38963 42.1104 0.918836 42.4996 0.622336 42.8002C0.289823 43.1371 0 43.6252 0 44.2687V44.2686Z" fill="#626263"/>
<path fill-rule="evenodd" clip-rule="evenodd" d="M37.3672 44.0653V53.3728C37.3672 54.3308 38.4096 55.2614 39.3906 55.2614H52.8798C53.9623 55.2614 54.9032 54.199 54.9032 53.3054V50.8774H52.6774V53.5078C52.6774 54.1741 52.0623 54.7893 51.3959 54.7893H40.9419C40.1908 54.7893 39.593 54.2311 39.593 53.3729V43.998C39.593 42.3534 41.5658 42.6491 42.4257 42.6491H50.789C52.2324 42.6491 53.5265 42.5816 54.9032 42.5816V42.042H40.0651C39.2317 42.042 38.7109 42.177 38.2135 42.5509C37.8455 42.8275 37.3673 43.4664 37.3673 44.0654L37.3672 44.0653Z" fill="#626263"/>
<path fill-rule="evenodd" clip-rule="evenodd" d="M18.6808 44.0653V53.3728C18.6808 54.3308 19.7232 55.2614 20.7042 55.2614H34.1933C34.768 55.2614 35.2567 54.9678 35.5616 54.6737C35.8466 54.3989 36.2167 53.8281 36.2167 53.3054V50.8774H33.991V53.5078C33.991 54.1741 33.3759 54.7893 32.7095 54.7893H22.2554C21.5042 54.7893 20.9065 54.2311 20.9065 53.3729V43.998C20.9065 42.3534 22.8793 42.6491 23.7392 42.6491H32.1025C33.5459 42.6491 34.84 42.5816 36.2166 42.5816V42.042H21.3785C20.545 42.042 20.0243 42.177 19.5269 42.5509C19.1588 42.8275 18.6807 43.4664 18.6807 44.0654L18.6808 44.0653Z" fill="#626263"/>
</svg>
