<svg width="243" height="48" viewBox="0 0 243 48" fill="none" xmlns="http://www.w3.org/2000/svg">
<path fill-rule="evenodd" clip-rule="evenodd" d="M22.1221 47.4055L42.9618 8.408L22.0782 0.362305L0.798828 8.5399L22.1221 47.4055ZM37.9937 9.63895L22.3859 5.33033L6.55831 9.72688L21.9902 33.3364L37.9937 9.63895Z" fill="#626263"/>
<path fill-rule="evenodd" clip-rule="evenodd" d="M38.829 8.36367L20.0557 43.712L0.798828 8.49557L20.0557 1.15332L38.829 8.36367ZM37.7299 9.59471L22.2541 5.76971H17.8135L2.46955 9.63868L17.9894 33.5999H22.1222L37.7299 9.59471Z" fill="#626263"/>
<path d="M22.166 17.7725L32.1462 13.4639L30.2557 17.7725L22.166 29.9949V17.7725Z" fill="#626263"/>
<path d="M22.21 17.7725L12.1858 13.4639L14.0847 17.7725L22.166 29.9949L22.21 17.7725Z" fill="#626263"/>
<path fill-rule="evenodd" clip-rule="evenodd" d="M63.863 29.5149V18.1309H67.5975L72.2956 26.0214V18.3718H75.3675V29.3944H71.874L67.2361 21.6244V29.5149H63.863ZM162.918 22.0706H162.991V22.2166H163.064V22.3629H163.137V22.436H163.21V22.582H163.283V22.655H163.356V22.8744H163.429V22.9474H163.502V23.0937H163.575V23.1667H163.649V23.313H163.722V23.4591H163.795V23.6052H163.868V23.6782H163.941V23.8245H164.014V23.9706H164.087V24.1899H164.16V24.336H164.233V24.4092H164.306V24.5553H164.38V24.7014H164.453V24.8477H164.526V24.9207H164.599V25.0668H164.672V25.2131H164.745V25.2861H164.818V25.4322H164.891V25.5785H164.964V25.6515H165.037V25.7975H165.11V25.9439H165.183V26.0899H165.256V26.1629H165.33V26.3092H165.403V26.4553H165.476V26.5283H165.549V26.6746H165.622V26.8207H165.695V26.894H165.768V27.04H165.841V27.1861H165.914V27.3324H165.987V27.4054H166.06V27.5515H166.133V27.6978H166.207V27.7708H166.28V27.9169H166.353V28.0632H166.426V28.1362H166.499V28.2823H166.572V28.4286H166.645V28.5747H166.718V28.6477H166.791V28.794H166.864V28.94H166.937V29.0133H167.01V29.0864H167.083V29.1594H167.157V29.2324H167.23V29.3787H170.884V18.3433H167.741V26.1629H167.522V26.0169H167.449V25.9439H167.376V25.7975H167.303V25.5054H167.23V25.3591H167.157V25.2861H167.083V25.1398H167.01V24.9937H166.937V24.8477H166.864V24.7746H166.791V24.6283H166.718V24.4823H166.645V24.336H166.572V24.2629H166.499V24.1169H166.426V23.9706H166.353V23.8975H166.28V23.7515H166.207V23.6052H166.133V23.4591H166.06V23.3861H165.987V23.2398H165.914V23.0937H165.841V22.9474H165.768V22.8744H165.695V22.7283H165.622V22.582H165.549V22.436H165.476V22.3629H165.403V22.2166H165.33V22.0706H165.256V21.9245H165.183V21.8512H165.11V21.7052H165.037V21.5589H164.964V21.4128H164.891V21.3398H164.818V21.1935H164.745V21.0474H164.672V20.9013H164.599V20.8281H164.526V20.682H164.453V20.5357H164.38V20.4627H164.306V20.3166H164.233V20.1703H164.16V20.0242H164.087V19.9512H164.014V19.8051H163.941V19.6588H163.868V19.5128H163.795V19.4395H163.722V19.2934H163.649V19.1471H163.575V19.0741H163.502V18.9281H163.429V18.782H163.356V18.6357H163.283V18.5627H163.21V18.4896H163.137V18.4166H163.064V18.3433H159.41V29.3787H162.553V21.6321H162.772V21.7052H162.845V21.8512H162.918V22.0706ZM60.8945 29.3057H60.9675V29.4518H60.8945V29.5248H49.3477V18.3433H57.3866L56.2904 19.6588H52.7095V19.7319H52.6365V27.9902H52.7095V28.0632H57.6059V27.9902H57.679V18.3433H60.8945V29.3057ZM111.837 24.7798V24.7065H111.91V24.4874H111.983V24.2681H112.056V24.0487H112.129V23.7566H112.202V23.5373H112.275V23.3182H112.348V23.0258H112.421V22.8065H112.494V22.5871H112.567V22.295H112.64V22.0757H112.714V21.8563H112.787V21.6373H112.86V21.3449H112.933V21.1256H113.006V20.9065H113.079V20.6141H113.152V20.3217H113.225V20.1754H113.298V19.8833H113.372V19.8103H113.883V19.9563H113.956V20.1754H114.029V20.3948H114.102V20.6141H114.175V20.8332H114.248V21.1256H114.321V21.2716H114.395V21.491H114.468V21.7833H114.541V22.0027H114.614V22.1487H114.687V22.4411H114.76V22.6602H114.833V22.8795H114.906V22.9525H114.979V23.0258H115.052V23.3182H115.125V23.4642H115.199V23.6103H115.272V23.9027H115.345V24.195H115.418V24.4144H115.491V24.5604H115.564V24.8528H115.637V25.0719H115.71V25.2912H115.783V25.5836H115.856V26.022H115.929V26.2411H116.002V26.5335H116.075V26.6798H116.148V26.8991H116.221V27.1912H116.295V27.4106H116.368V27.6299H116.441V27.849H116.514V28.1414H116.587V28.2874H116.66V28.5798H116.733V28.7991H116.806V29.0184H116.879V29.2375H116.952V29.4569H117.025V29.5299H120.46V29.4569H120.533V29.3108H120.46V29.0915H120.387V28.8721H120.314V28.7261H120.241V28.4337H120.168V28.2144H120.095V27.9953H120.022V27.849H119.949V27.6299H119.876V27.3375H119.803V27.1912H119.729V26.9721H119.656V26.7528H119.583V26.5335H119.51V26.3874H119.437V26.095H119.364V25.8759H119.291V25.7296H119.218V25.5105H119.145V25.2182H119.072V25.0719H118.999V24.8528H118.925V24.6335H118.852V24.4144H118.779V24.2681H118.706V23.9757H118.633V23.7566H118.56V23.6103H118.487V23.3912H118.414V23.0988H118.341V22.8795H118.268V22.7334H118.195V22.5141H118.122V22.295H118.049V22.0757H117.976V21.8563H117.902V21.6373H117.829V21.4179H117.756V21.2716H117.683V21.0525H117.61V20.7602H117.537V20.6141H117.464V20.3948H117.391V20.1754H117.318V19.9563H117.245V19.8103H117.172V19.5179H117.099V19.2986H117.025V19.1523H116.952V18.9332H116.879V18.6408H116.806V18.4217H116.733V18.2754H116.66V18.2024H110.594V18.2754H110.521V18.4217H110.448V18.6408H110.375V18.8601H110.302V19.0792H110.229V19.2255H110.156V19.5179H110.083V19.737H110.01V19.8833H109.937V20.1024H109.864V20.3948H109.791V20.5408H109.717V20.7602H109.644V20.9795H109.571V21.1986H109.498V21.3449H109.425V21.6373H109.352V21.8563H109.279V22.0027H109.206V22.2217H109.133V22.5141H109.06V22.6602H108.987V22.8795H108.913V23.0988H108.84V23.3912H108.767V23.5373H108.694V23.7566H108.621V23.9757H108.548V24.195H108.475V24.3411H108.402V24.6335H108.329V24.8528H108.256V24.9988H108.183V25.2182H108.11V25.5105H108.036V25.6566H107.963V25.8759H107.89V26.095H107.817V26.3144H107.744V26.4604H107.671V26.7528H107.598V26.9721H107.525V27.1912H107.452V27.3375H107.379V27.6299H107.306V27.849H107.233V27.9953H107.16V28.2144H107.087V28.5067H107.013V28.6528H106.94V28.8721H106.867V29.0915H106.794V29.3108H106.721V29.4569H106.794V29.5299H110.229V29.4569H110.302V29.3108H110.375V29.0915H110.448V28.9452H110.521V28.6528H110.594V28.4337H110.667V28.2874H110.74V27.9953H110.814V27.776H110.887V27.5566H110.96V27.4106H111.033V27.1182H111.106V26.8991H111.179V26.8258H114.687V26.7528H114.76V26.6798H114.833V26.5335H114.906V26.4604H114.979V26.3144H115.052V26.095H115.125V26.022H115.199V25.8759H115.272V25.7296H115.345V25.6566H115.418V25.5105H115.491V25.4373H115.564V25.2912H111.691V24.9258H111.764V24.7798H111.837ZM208.522 24.8477H206.988V24.7746H206.841V29.3787H203.626V18.3433H210.422V18.4166H210.349V18.5627H210.276V18.6357H210.203V18.782H210.13V18.855H210.057V19.0011H209.984V19.0741H209.911V19.1471H209.837V19.2204H209.764V19.3665H209.691V19.4395H209.618V19.5128H209.545V19.5858H209.472V19.6588H206.914V19.7319H206.841V23.313H206.914V23.3861H210.641V18.3433H213.857V24.8477H212.249V24.9937H212.322V25.2131H212.395V25.3591H212.468V25.5054H212.541V25.6515H212.615V25.7975H212.688V25.9439H212.761V26.0899H212.834V26.3092H212.907V26.4553H212.98V26.6016H213.053V26.7477H213.126V26.894H213.199V27.04H213.272V27.1861H213.345V27.4054H213.419V27.4785H213.492V27.6248H213.565V27.8439H213.638V27.9902H213.711V28.1362H213.784V28.2823H213.857V28.5016H213.93V28.6477H214.003V28.721H214.076V28.94H214.149V29.0864H214.222V29.2324H214.295V29.5248H210.788V29.3787H210.715V29.3057H210.641V29.0864H210.568V28.94H210.495V28.867H210.422V28.6477H210.349V28.5016H210.276V28.3556H210.203V28.2093H210.13V28.0632H210.057V27.9169H209.984V27.7708H209.911V27.6248H209.837V27.4785H209.764V27.3324H209.691V27.1861H209.618V27.04H209.545V26.894H209.472V26.7477H209.399V26.6016H209.326V26.3823H209.253V26.3092H209.18V26.1629H209.107V25.9439H209.034V25.7975H208.961V25.7245H208.888V25.5054H208.814V25.3591H208.741V25.2131H208.668V25.0668H208.595V24.9207H208.522V24.8477ZM103.504 18.7871V18.7138H103.577V18.5678H103.65V18.4217H103.723V18.2024H92.1035V29.4569H99.4847V29.3108H99.5577V29.2376H99.631V29.0915H99.704V29.0184H99.777V28.9452H99.8501V28.7991H99.9231V28.7261H99.9964V28.5798H100.069V28.5068H100.142V28.4337H100.215V28.3607H100.289V28.2874H100.435V29.3839H103.577V22.6602H98.0231V23.9757H100.362V24.0487H100.435V27.9953H100.362V28.0683H95.4653V27.9953H95.3923V19.737H95.4653V19.664H102.993V19.5909H103.066V19.4446H103.139V19.2255H103.212V19.1523H103.285V19.0062H103.358V18.8601H103.431V18.7871H103.504ZM130.179 18.3484H130.106V18.2024H133.614V18.4217H133.687V18.5678H133.76V18.7871H133.833V19.0062H133.906V19.2255H133.979V19.4446H134.052V19.664H134.125V19.8833H134.198V20.0294H134.272V20.2485H134.345V20.4678H134.418V20.6871H134.491V20.9065H134.564V21.1256H134.637V21.3449H134.71V21.491H134.783V21.7103H134.856V21.9296H134.929V22.1487H135.002V22.295H135.075V22.5871H135.148V22.8065H135.222V22.9525H135.295V23.1719H135.368V23.3912H135.441V23.6103H135.514V23.7566H135.587V24.0487H135.66V24.2681H135.733V24.4144H135.806V24.6335H135.879V24.8528H135.952V25.0719H136.026V25.2182H136.099V25.5105H136.172V25.7297H136.245V25.8759H136.318V26.095H136.391V26.3144H136.464V26.1681H136.537V25.949H136.61V25.8027H136.683V25.5836H136.756V25.3643H136.829V25.2182H136.902V24.9989H136.975V24.7798H137.049V24.5604H137.122V24.4144H137.195V24.195H137.268V23.9757H137.341V23.8296H137.414V23.6103H137.487V23.3912H137.56V23.2449H137.633V23.0258H137.706V22.8065H137.78V22.5871H137.853V22.4411H137.926V22.295H137.999V22.0757H138.072V21.8563H138.145V21.7103H138.218V21.491H138.291V21.2716H138.364V21.1256H138.437V20.9065H138.51V20.6871H138.583V20.4678H138.656V20.3217H138.729V20.1024H138.802V19.8833H138.876V19.737H138.949V19.5179H139.022V19.2986H139.095V19.1523H139.168V18.9332H139.241V18.7138H139.314V18.4948H139.387V18.3484H139.46V18.2024H142.822V18.4217H142.749V18.5678H142.676V18.7871H142.603V18.9332H142.53V19.1523H142.457V19.2986H142.383V19.5179H142.31V19.664H142.237V19.8833H142.164V20.0294H142.091V20.1754H142.018V20.3948H141.945V20.6141H141.872V20.7602H141.799V20.9065H141.726V21.1256H141.653V21.3449H141.58V21.491H141.507V21.6373H141.433V21.8563H141.36V22.0027H141.287V22.2217H141.214V22.368H141.141V22.5871H141.068V22.7334H140.995V22.9525H140.922V23.1719H140.849V23.3182H140.776V23.4642H140.703V23.6833H140.63V23.9027H140.557V23.9757H140.483V24.195H140.41V24.4144H140.337V24.5604H140.264V24.7065H140.191V24.9258H140.118V25.1449H140.045V25.2912H139.972V25.4373H139.899V25.6566H139.826V25.8027H139.753V26.022H139.68V26.2411H139.607V26.3874H139.533V26.5335H139.46V26.7528H139.387V26.9721H139.314V27.1182H139.241V27.2643H139.168V27.4836H139.095V27.7029H139.022V27.776H138.949V27.9953H138.876V28.2144H138.802V28.3607H138.729V28.5798H138.656V28.7261H138.583V28.9452H138.51V29.0915H138.437V29.3108H138.364V29.4569H134.418V29.3108H134.345V29.1645H134.272V28.9452H134.198V28.7261H134.125V28.5068H134.052V28.3607H133.979V28.1414H133.906V27.9953H133.833V27.849H133.76V27.6299H133.687V27.4106H133.614V27.1912H133.541V27.0452H133.468V26.8258H133.395V26.6067H133.322V26.5335H133.248V26.3144H133.175V26.095H133.102V25.8759H133.029V25.7297H132.956V25.5105H132.883V25.2912H132.81V25.1449H132.737V24.9989H132.664V24.7798H132.591V24.5604H132.518V24.4144H132.445V24.195H132.371V23.9757H132.298V23.8296H132.225V23.6103H132.152V23.3912H132.079V23.2449H132.006V23.0988H131.933V22.8795H131.86V22.6602H131.787V22.5141H131.714V22.295H131.641V22.0757H131.568V21.9296H131.495V21.7833H131.421V21.564H131.348V21.3449H131.275V21.1986H131.202V20.9795H131.129V20.7602H131.056V20.6141H130.983V20.3948H130.91V20.1754H130.837V20.0294H130.764V19.8833H130.69V19.664H130.617V19.4446H130.544V19.2986H130.471V19.0792H130.398V18.8601H130.325V18.7138H130.252V18.5678H130.179V18.3484ZM226.641 24.4874H226.788V24.4144H226.861V24.3411H226.934V24.195H227.007V24.0487H227.08V23.9027H227.153V23.7566H227.226V23.6103H227.299V23.3182H227.372V23.0988H220.649V23.0258H220.576V19.737H220.649V19.664H227.08V19.5179H227.153V19.2986H227.226V19.2255H227.299V19.0792H227.372V18.9332H227.446V18.8601H227.519V18.7871H227.592V18.6408H227.665V18.4948H227.738V18.3484H227.811V18.2024H217.36V29.4569H227.153V29.3839H227.226V29.2376H227.299V28.8722H227.372V28.7261H227.446V28.6528H227.519V28.5068H227.592V28.2874H227.665V28.2144H227.738V28.1414H227.665V28.0683H220.649V27.9953H220.576V24.4874H220.649V24.4144H226.641V24.4874ZM155.681 29.2324V29.3057H155.608V29.3787H145.888V18.3433H156.193V18.5627H156.12V18.7087H156.046V18.855H155.973V19.0011H155.9V19.0741H155.827V19.1471H155.754V19.2934H155.681V19.4395H155.608V19.5858H155.535V19.6588H149.177V19.7319H149.104V22.9474H149.177V23.0207H155.9V23.0937H155.973V23.1667H155.9V23.3861H155.827V23.5321H155.754V23.6052H155.681V23.7515H155.608V23.9706H155.535V24.1169H155.462V24.1899H155.389V24.4092H155.316V24.4823H149.177V27.9902H156.339V28.1362H156.266V28.2823H156.193V28.3556H156.12V28.5747H156.046V28.721H155.973V28.794H155.9V29.0133H155.827V29.1594H155.754V29.2324H155.681ZM181.482 19.8051V29.3787H178.266V19.7319H178.193V19.6588H174.028V18.3433H185.867V18.4896H185.794V18.855H185.721V19.0011H185.648V19.1471H185.574V19.2934H185.501V19.4395H185.428V19.6588H185.355V19.7319H185.282V19.8051H181.482ZM196.315 29.3108V29.2376H196.388V29.0915H196.461V29.0184H196.534V28.9452H196.607V28.8722H196.68V28.7261H196.753V28.6528H196.827V28.5068H196.9V28.4337H196.973V28.2874H197.046V28.2144H197.119V28.1414H197.265V27.9953H192.295V27.922H192.222V18.2024H189.08V29.3839H196.242V29.3108H196.315ZM237.603 24.4823H230.952V18.3433H242.353V18.4896H242.28V18.855H242.207V19.0741H242.134V19.2204H242.061V19.3665H241.988V19.5128H241.915V19.6588H241.695V19.7319H234.46V19.6588H234.168V23.0207H234.241V23.0937H238.626V23.1667H238.553V23.313H238.48V23.3861H238.407V23.5321H238.334V23.6052H238.261V23.6782H238.188V23.7515H238.115V23.8975H238.042V23.9706H237.968V24.0436H237.895V24.1899H237.822V24.2629H237.749V24.336H237.676V24.4092H237.603V24.4823ZM200.482 18.2024H197.413V29.3839H200.482V18.2024ZM238.702 28.0679V27.9949H238.775V23.0984H242.137V29.3834H230.882V28.1409H230.955V28.0679H238.702ZM78.6803 18.3718V29.3342H88.2573L89.0404 28.009H81.8124V24.4553H88.0164L88.6187 23.1302H81.8124V19.6367H88.2573L88.9199 18.3718H78.6803Z" fill="#626263"/>
</svg>
