<svg width="225" height="39" viewBox="0 0 225 39" fill="none" xmlns="http://www.w3.org/2000/svg">
<path fill-rule="evenodd" clip-rule="evenodd" d="M15.64 9.3469C10.5442 9.3469 6.4133 13.4778 6.4133 18.5736C6.4133 23.6693 10.5442 27.8002 15.64 27.8002C20.7357 27.8002 24.8666 23.6693 24.8666 18.5736C24.8666 13.4778 20.7357 9.3469 15.64 9.3469ZM0.972656 18.5736C0.972656 10.473 7.53944 3.90625 15.64 3.90625C23.7405 3.90625 30.3073 10.473 30.3073 18.5736C30.3073 26.6741 23.7405 33.2409 15.64 33.2409C7.53944 33.2409 0.972656 26.6741 0.972656 18.5736Z" fill="#626263"/>
<ellipse cx="33.6165" cy="3.84992" rx="3.84211" ry="3.84211" fill="#626263"/>
<path d="M45.007 12.1568V18.6371H49.6083C50.7426 18.6371 51.5859 18.2968 52.1383 17.6162C52.7005 16.9553 52.9816 16.2156 52.9816 15.3969C52.9816 14.1739 52.5476 13.2812 51.6797 12.719C51.1174 12.3442 50.3875 12.1568 49.49 12.1568H45.007ZM41.6189 30.3104C41.5006 30.3104 41.4414 30.2513 41.4414 30.1329V8.93145C41.4414 8.81309 41.5006 8.75391 41.6189 8.75391H49.3124C50.1607 8.75391 50.9646 8.84268 51.724 9.02022C52.4934 9.19776 53.312 9.62189 54.18 10.2926C54.5154 10.5589 54.8212 10.8696 55.0973 11.2247C55.3834 11.5699 55.6398 11.9546 55.8667 12.3787C56.0837 12.8127 56.2514 13.2911 56.3697 13.8138C56.4881 14.3366 56.5473 14.8939 56.5473 15.4857C56.5473 17.0343 55.9653 18.5138 54.8014 19.9242C53.6375 21.3249 51.946 22.0252 49.7267 22.0252H45.007V30.1329C45.007 30.2513 44.9479 30.3104 44.8295 30.3104H41.6189Z" fill="#626263"/>
<path d="M58.3966 22.617C58.3966 21.0092 58.5298 19.7911 58.7961 18.9626C59.0526 18.134 59.4767 17.3992 60.0685 16.7581C60.4828 16.3142 61.0647 15.8753 61.8143 15.4413C62.5639 15.0073 63.5454 14.7903 64.7586 14.7903C65.9619 14.7903 66.9335 15.0073 67.6732 15.4413C68.0579 15.6583 68.3932 15.8753 68.6793 16.0923C68.9752 16.3093 69.2316 16.5312 69.4486 16.7581C70.0306 17.3992 70.4547 18.134 70.721 18.9626C70.9775 19.8108 71.1057 21.0289 71.1057 22.617C71.1057 24.2543 70.9775 25.4872 70.721 26.3157C70.4547 27.1245 70.0306 27.8594 69.4486 28.5202C69.0048 28.9937 68.413 29.4425 67.6732 29.8666C66.9335 30.2808 65.9619 30.488 64.7586 30.488C63.5454 30.488 62.5639 30.2808 61.8143 29.8666C61.479 29.6693 61.1584 29.4523 60.8526 29.2156C60.5567 28.9789 60.2954 28.7471 60.0685 28.5202C59.4668 27.8594 59.0427 27.1245 58.7961 26.3157C58.5298 25.5069 58.3966 24.274 58.3966 22.617ZM67.7472 22.6466C67.7472 21.6109 67.6929 20.8613 67.5844 20.3977C67.4858 19.9736 67.3033 19.5692 67.037 19.1845C66.7806 18.8491 66.46 18.5927 66.0753 18.4151C65.7005 18.2376 65.2616 18.1488 64.7586 18.1488C63.713 18.1488 62.9536 18.494 62.4801 19.1845C62.342 19.3818 62.2237 19.579 62.125 19.7763C62.0363 19.9637 61.9672 20.1708 61.9179 20.3977C61.8193 20.8218 61.7699 21.5616 61.7699 22.617C61.7699 23.1496 61.7798 23.6082 61.7995 23.9929C61.8291 24.3776 61.8686 24.6833 61.9179 24.9102C62.0067 25.3343 62.1941 25.7338 62.4801 26.1086C62.9437 26.7892 63.7032 27.1295 64.7586 27.1295C65.7646 27.1295 66.5241 26.7892 67.037 26.1086C67.2935 25.7239 67.4759 25.3245 67.5844 24.9102C67.6929 24.4269 67.7472 23.6723 67.7472 22.6466Z" fill="#626263"/>
<path d="M74.257 9.0794C74.257 8.96104 74.3113 8.90186 74.4198 8.90186H77.4528C77.5613 8.90186 77.6155 8.96104 77.6155 9.0794V26.2566C77.6155 26.8385 77.9361 27.1295 78.5772 27.1295H79.5981C79.7165 27.1295 79.7756 27.1887 79.7756 27.307V30.1329C79.7756 30.2513 79.7165 30.3104 79.5981 30.3104H78.2665C77.152 30.3104 76.2051 30.0343 75.4259 29.4819C74.6467 28.9098 74.257 27.9186 74.257 26.5081V9.0794Z" fill="#626263"/>
<path d="M82.2908 30.3104C82.1725 30.3104 82.1133 30.2513 82.1133 30.1329V9.0794C82.1133 8.96104 82.1725 8.90186 82.2908 8.90186H85.309C85.4274 8.90186 85.4866 8.96104 85.4866 9.0794V21.7736C86.4137 20.6393 87.331 19.5149 88.2385 18.4003C89.1558 17.2759 90.078 16.1465 91.0052 15.0123C91.0446 14.9728 91.089 14.9531 91.1383 14.9531H94.7483C94.8272 14.9531 94.8815 14.9876 94.9111 15.0566C94.9407 15.1257 94.9308 15.1898 94.8815 15.249L89.792 21.0339C90.7684 22.5528 91.7351 24.057 92.6918 25.5464C93.6584 27.0259 94.63 28.5252 95.6064 30.0441C95.6459 30.1132 95.6508 30.1773 95.6212 30.2365C95.5917 30.2858 95.5374 30.3104 95.4585 30.3104H91.6709C91.6118 30.3104 91.5624 30.2808 91.523 30.2217L87.6615 23.4307C87.3064 23.845 86.9414 24.2543 86.5666 24.6587C86.2017 25.0631 85.8417 25.4724 85.4866 25.8867V30.1329C85.4866 30.2513 85.4274 30.3104 85.309 30.3104H82.2908Z" fill="#626263"/>
<path d="M105.933 30.3696C105.815 30.3696 105.756 30.3104 105.756 30.1921V29.3635C105.618 29.5411 105.455 29.6989 105.268 29.837C105.09 29.9652 104.898 30.0688 104.691 30.1477C104.385 30.2759 104.025 30.3745 103.611 30.4436C103.206 30.5126 102.762 30.5472 102.279 30.5472C100.583 30.5077 99.2904 30.0441 98.4027 29.1564V29.1712C97.4361 28.2934 96.9528 27.164 96.9528 25.7831C96.9528 24.491 97.3671 23.4011 98.1956 22.5134C99.0439 21.6257 100.267 21.172 101.865 21.1522H105.756V19.7467C105.776 18.5236 104.839 17.9368 102.945 17.9861C102.6 17.9861 102.289 18.0009 102.013 18.0305C101.737 18.0601 101.485 18.1143 101.258 18.1932H101.273C101.076 18.2918 100.898 18.4151 100.74 18.5631C100.583 18.7012 100.449 18.8689 100.341 19.0661C100.272 19.1845 100.183 19.1993 100.075 19.1105L97.7665 17.2907C97.7271 17.2611 97.7024 17.2266 97.6926 17.1871C97.6827 17.1378 97.6926 17.0934 97.7222 17.054C98.8663 15.5054 100.558 14.7558 102.797 14.8051C103.734 14.7953 104.572 14.8791 105.312 15.0566C106.052 15.2342 106.713 15.5153 107.295 15.9C108.439 16.7088 109.016 18.0453 109.026 19.9094V30.1921C109.026 30.3104 108.966 30.3696 108.848 30.3696H105.933ZM105.756 23.9929H102.412C100.824 24.0422 100.035 24.5896 100.045 25.6352C100.045 26.079 100.247 26.4736 100.652 26.8188C101.066 27.1837 101.727 27.3662 102.634 27.3662C103.847 27.3761 104.686 27.233 105.149 26.9371H105.135C105.549 26.661 105.756 25.9903 105.756 24.925V23.9929Z" fill="#626263"/>
<path d="M112.813 30.3104C112.695 30.3104 112.636 30.2513 112.636 30.1329V8.93145C112.636 8.81309 112.695 8.75391 112.813 8.75391H126.366C126.484 8.75391 126.543 8.81309 126.543 8.93145V11.9792C126.543 12.0976 126.484 12.1568 126.366 12.1568H116.201V18.0453H124.842C124.96 18.0453 125.019 18.1044 125.019 18.2228V21.0783C125.019 21.1966 124.96 21.2558 124.842 21.2558H116.201V30.1329C116.201 30.2513 116.142 30.3104 116.024 30.3104H112.813Z" fill="#626263"/>
<path d="M127.904 22.617C127.904 21.0092 128.037 19.7911 128.304 18.9626C128.56 18.134 128.984 17.3992 129.576 16.7581C129.99 16.3142 130.572 15.8753 131.322 15.4413C132.072 15.0073 133.053 14.7903 134.266 14.7903C135.47 14.7903 136.441 15.0073 137.181 15.4413C137.566 15.6583 137.901 15.8753 138.187 16.0923C138.483 16.3093 138.739 16.5312 138.956 16.7581C139.538 17.3992 139.962 18.134 140.229 18.9626C140.485 19.8108 140.613 21.0289 140.613 22.617C140.613 24.2543 140.485 25.4872 140.229 26.3157C139.962 27.1245 139.538 27.8594 138.956 28.5202C138.512 28.9937 137.921 29.4425 137.181 29.8666C136.441 30.2808 135.47 30.488 134.266 30.488C133.053 30.488 132.072 30.2808 131.322 29.8666C130.987 29.6693 130.666 29.4523 130.36 29.2156C130.064 28.9789 129.803 28.7471 129.576 28.5202C128.974 27.8594 128.55 27.1245 128.304 26.3157C128.037 25.5069 127.904 24.274 127.904 22.617ZM137.255 22.6466C137.255 21.6109 137.201 20.8613 137.092 20.3977C136.993 19.9736 136.811 19.5692 136.545 19.1845C136.288 18.8491 135.968 18.5927 135.583 18.4151C135.208 18.2376 134.769 18.1488 134.266 18.1488C133.221 18.1488 132.461 18.494 131.988 19.1845C131.85 19.3818 131.731 19.579 131.633 19.7763C131.544 19.9637 131.475 20.1708 131.426 20.3977C131.327 20.8218 131.278 21.5616 131.278 22.617C131.278 23.1496 131.287 23.6082 131.307 23.9929C131.337 24.3776 131.376 24.6833 131.426 24.9102C131.514 25.3343 131.702 25.7338 131.988 26.1086C132.451 26.7892 133.211 27.1295 134.266 27.1295C135.272 27.1295 136.032 26.7892 136.545 26.1086C136.801 25.7239 136.984 25.3245 137.092 24.9102C137.201 24.4269 137.255 23.6723 137.255 22.6466Z" fill="#626263"/>
<path d="M143.794 15.1306C143.794 15.0123 143.853 14.9531 143.972 14.9531H146.99C147.108 14.9531 147.168 15.0123 147.168 15.1306V24.0817C147.168 25.068 147.429 25.8226 147.952 26.3453C148.474 26.8681 149.155 27.1295 149.993 27.1295C150.773 27.1295 151.433 26.8681 151.976 26.3453C152.499 25.8226 152.76 25.068 152.76 24.0817V15.1306C152.76 15.0123 152.819 14.9531 152.938 14.9531H155.956C156.074 14.9531 156.133 15.0123 156.133 15.1306V30.1329C156.133 30.2513 156.074 30.3104 155.956 30.3104H152.938C152.819 30.3104 152.76 30.2513 152.76 30.1329V28.9493C151.823 29.9751 150.57 30.488 149.002 30.488C147.789 30.488 146.615 30.0343 145.481 29.1268C144.356 28.2095 143.794 26.8681 143.794 25.1025V15.1306Z" fill="#626263"/>
<path d="M160.246 30.3104C160.128 30.3104 160.069 30.2513 160.069 30.1329V15.1306C160.069 15.0123 160.128 14.9531 160.246 14.9531H163.265C163.383 14.9531 163.442 15.0123 163.442 15.1306V16.3438C164.389 15.3082 165.652 14.7903 167.23 14.7903C167.841 14.7903 168.433 14.9038 169.005 15.1306C169.577 15.3575 170.149 15.6978 170.721 16.1515C171.846 17.0688 172.408 18.4053 172.408 20.161V30.1329C172.408 30.2513 172.349 30.3104 172.231 30.3104H169.212C169.094 30.3104 169.035 30.2513 169.035 30.1329V21.1966C169.035 20.2201 168.773 19.4705 168.251 18.9478C167.698 18.4151 167.037 18.1488 166.268 18.1488C165.44 18.1488 164.759 18.4151 164.226 18.9478C163.704 19.4705 163.442 20.2201 163.442 21.1966V30.1329C163.442 30.2513 163.383 30.3104 163.265 30.3104H160.246Z" fill="#626263"/>
<path d="M185.487 30.3104C185.369 30.3104 185.309 30.2513 185.309 30.1329V29.0085C184.274 29.9948 183.041 30.488 181.611 30.488C180.654 30.488 179.83 30.3006 179.14 29.9258C178.459 29.551 177.897 29.0676 177.453 28.4758H177.468C177.014 27.9235 176.713 27.2725 176.566 26.5229C176.418 25.7831 176.344 24.4811 176.344 22.617C176.344 20.7824 176.418 19.5001 176.566 18.7702C176.644 18.4151 176.758 18.0699 176.906 17.7346C177.054 17.3992 177.241 17.0885 177.468 16.8025H177.453C177.897 16.2205 178.459 15.7421 179.14 15.3673C179.83 14.9827 180.654 14.7903 181.611 14.7903C182.35 14.7903 183.016 14.9333 183.608 15.2194C184.21 15.5054 184.777 15.8802 185.309 16.3438V9.0794C185.309 8.96104 185.369 8.90186 185.487 8.90186H188.505C188.624 8.90186 188.683 8.96104 188.683 9.0794V30.1329C188.683 30.2513 188.624 30.3104 188.505 30.3104H185.487ZM182.543 18.1488C181.191 18.1488 180.383 18.5927 180.116 19.4804H180.131C179.993 19.9736 179.889 20.4815 179.82 21.0043C179.751 21.5172 179.717 22.0547 179.717 22.617C179.717 23.189 179.751 23.7414 179.82 24.274C179.889 24.8066 179.993 25.3146 180.131 25.7979H180.116C180.383 26.6856 181.191 27.1295 182.543 27.1295C183.855 27.1295 184.634 26.6659 184.88 25.7387C185.166 24.7129 185.309 23.6723 185.309 22.617C185.309 21.5912 185.166 20.5654 184.88 19.5396C184.624 18.6124 183.845 18.1488 182.543 18.1488Z" fill="#626263"/>
<path d="M192.219 30.3104C192.11 30.3104 192.056 30.2513 192.056 30.1329V15.1306C192.056 15.0123 192.11 14.9531 192.219 14.9531H195.252C195.36 14.9531 195.415 15.0123 195.415 15.1306V16.3438C196.361 15.3082 197.624 14.7903 199.202 14.7903C200.336 14.7903 201.416 15.1849 202.442 15.9739C202.482 16.0035 202.501 16.043 202.501 16.0923C202.511 16.1416 202.501 16.186 202.472 16.2255L200.297 18.8294C200.228 18.9182 200.149 18.928 200.06 18.859C199.419 18.3855 198.788 18.1488 198.166 18.1488C197.466 18.1488 196.83 18.3855 196.258 18.859C195.696 19.3324 195.415 20.087 195.415 21.1227V30.1329C195.415 30.2513 195.36 30.3104 195.252 30.3104H192.219Z" fill="#626263"/>
<path d="M207.044 29.5559C206.146 27.1591 205.253 24.7672 204.366 22.3802C203.478 19.9834 202.585 17.5866 201.688 15.1898C201.668 15.1306 201.673 15.0764 201.702 15.027C201.732 14.9777 201.776 14.9531 201.836 14.9531H205.017C205.046 14.9531 205.076 14.9679 205.105 14.9975C205.145 15.0172 205.169 15.0418 205.179 15.0714L208.612 25.2061C209.184 23.4997 209.751 21.8082 210.313 20.1314C210.885 18.4546 211.457 16.7679 212.029 15.0714C212.039 15.0418 212.059 15.0172 212.089 14.9975C212.128 14.9679 212.163 14.9531 212.192 14.9531H215.388C215.457 14.9531 215.506 14.9777 215.536 15.027C215.566 15.0764 215.57 15.1306 215.551 15.1898L209.1 33.2991C208.676 34.5024 208.069 35.3161 207.28 35.7403V35.7255C206.896 35.9523 206.486 36.1151 206.052 36.2137C205.628 36.3222 205.179 36.3764 204.706 36.3764H203.7C203.581 36.3764 203.522 36.3222 203.522 36.2137V33.3582C203.522 33.2399 203.581 33.1807 203.7 33.1807H204.588C205.406 33.1807 205.959 32.7862 206.245 31.9971L207.044 29.5559Z" fill="#626263"/>
</svg>
