<svg width="167" height="39" viewBox="0 0 167 39" fill="none" xmlns="http://www.w3.org/2000/svg">
<path fill-rule="evenodd" clip-rule="evenodd" d="M38.9093 22.6619C38.9093 29.8236 39.3778 28.9504 35.7686 31.2174C34.2891 32.1467 32.4355 33.8457 30.3314 33.0191C29.5436 32.7096 26.5828 30.8657 25.7082 30.2476C23.4834 28.6751 24.2239 27.4086 24.0863 24.2285C22.5415 24.8066 21.5495 25.9088 20.0303 26.3644C19.7747 32.9331 20.277 32.0177 24.7841 34.7059C32.5017 39.309 30.4057 39.5553 38.1492 34.8878C44.2507 31.21 43.1841 33.1154 43.1841 20.0979C43.1841 16.9134 39.0117 15.4717 34.745 12.8755C30.1617 10.0869 31.416 11.5107 24.1362 15.4198C23.2023 15.9213 22.7753 16.3232 21.7847 16.9078L14.1568 21.4885C11.9962 22.7353 10.2632 20.968 8.67018 20.0383C4.63882 17.6856 5.16623 18.1057 5.16623 11.4422C5.16623 8.10536 6.17233 8.62375 8.27526 7.26197C11.8639 4.93793 12.2348 3.76379 18.3116 8.16883C20.4328 9.70626 19.7784 11.1405 19.9239 14.2403C20.9304 13.8833 21.3814 13.4849 22.3038 12.9482C24.2031 11.8434 24.0464 12.2076 24.0464 8.87765C24.0464 5.38178 22.1343 5.50919 16.6549 2.12134C11.1821 -1.26236 12.9487 -0.538303 3.12101 5.30515C0.873595 6.64155 0.963843 6.96861 0.989001 10.1554C1.04947 17.7948 -0.0540375 19.8324 3.37374 21.8202C15.2162 28.6875 10.1478 28.1451 21.6335 21.9005C31.3319 16.6278 29.6078 14.824 35.6451 18.3961C37.6728 19.5958 38.9097 19.6247 38.9097 22.6622L38.9093 22.6619Z" fill="#626263"/>
<path fill-rule="evenodd" clip-rule="evenodd" d="M119.96 15.2875C122.253 14.4423 124.869 15.6829 125.217 17.5995C126.55 24.9313 119.064 24.6598 117.517 20.8551C116.672 18.7748 117.086 16.3474 119.96 15.2875ZM124.987 13.1599C123.61 12.5245 122.85 11.6626 120.813 11.4699C112.801 10.7121 109.364 22.3596 117.153 26.3551C121.421 28.5439 124.422 25.1531 125.337 24.5941C125.35 27.4476 125.115 29.4787 122.487 30.0677C119.282 30.7863 118.45 29.3398 116.619 28.4091C116.035 29.4058 114.908 30.3006 114.542 31.2613C118.331 35.6573 125.313 34.278 128.295 30.464C130.12 28.1282 129.59 24.9056 129.59 21.7103C129.59 18.8088 129.81 14.9046 129.491 12.1263C126.32 12.181 126.586 11.7464 125.331 12.8058L124.987 13.1596L124.987 13.1599Z" fill="#626263"/>
<path fill-rule="evenodd" clip-rule="evenodd" d="M64.0008 21.0632C62.375 24.9884 54.7691 24.6154 56.7723 17.2959C57.9263 13.0797 66.3487 15.3949 64.0008 21.0632ZM56.5731 25.4276C59.7156 26.3599 60.6465 28.2643 64.8952 26.0467C70.7373 22.9972 69.3547 13.9607 64.5786 11.888C61.7481 10.6596 58.7506 11.7756 56.4461 13.4921L55.8486 11.7777L52.2246 11.8123L52.3008 33.5076C53.6196 33.7355 55.2912 33.8282 56.5653 33.4012L56.5733 25.4272L56.5731 25.4276Z" fill="#626263"/>
<path fill-rule="evenodd" clip-rule="evenodd" d="M139.53 15.3004C144.493 13.6949 145.567 22.1705 141.54 23.1942C136.694 24.4258 134.946 16.7834 139.53 15.3004ZM148.268 20.7344C150.804 11.0597 135.174 7.26561 132.805 17.3299C131.004 24.9786 139.387 29.3134 145.133 25.5134C146.671 24.4964 147.61 23.2454 148.268 20.7344H148.268Z" fill="#626263"/>
<path fill-rule="evenodd" clip-rule="evenodd" d="M77.3465 15.3032C81.8395 13.0644 84.1495 21.6194 79.8961 23.0735C77.4324 23.9157 75.6741 22.4642 75.1739 20.5463C74.4577 17.8001 75.6134 16.1669 77.3465 15.3032ZM86.2686 21.0504C87.8886 14.5663 80.8166 8.67894 74.2855 12.6648C70.1757 15.1731 69.8318 20.3213 71.9516 23.7378C74.9048 28.4976 84.4412 28.3649 86.2686 21.0507V21.0504Z" fill="#626263"/>
<path fill-rule="evenodd" clip-rule="evenodd" d="M151.744 12.1166C151.174 14.3504 151.506 23.6376 151.533 26.5638L155.638 26.5084C155.518 24.6398 155.064 20.9242 155.824 19.5204C155.873 16.1921 157.572 14.4271 161.045 15.4352C161.75 18.6008 161.366 23.0026 161.406 26.6492L165.957 26.6268C165.837 21.723 168.098 10.1559 159.991 11.5248C157.827 11.8902 157.305 12.7442 156.236 13.8364C155.913 14.1669 156.03 14.0778 155.759 14.2743L155.196 12.1591L151.743 12.1169L151.744 12.1166Z" fill="#626263"/>
<path fill-rule="evenodd" clip-rule="evenodd" d="M96.2229 12.1677C96.6437 14.0481 100.061 20.6636 101.096 22.819C103.255 27.3154 102.488 25.3611 99.3208 33.6503L103.19 33.5835L112.119 12.1495C105.589 12.0491 109.349 13.0686 104.792 20.7435C104.251 20.3853 104.723 20.8204 104.304 20.2623L102.587 16.2385C100.451 11.4122 102.179 11.9803 96.2227 12.1679L96.2229 12.1677Z" fill="#626263"/>
<path fill-rule="evenodd" clip-rule="evenodd" d="M89.7201 26.5283L93.7695 26.5156L93.6822 0.0078125L89.6973 0.0625175L89.7201 26.5283Z" fill="#626263"/>
</svg>
